<svg xmlns="http://www.w3.org/2000/svg" width="184" height="55.394" viewBox="0 0 184 55.394">
  <g id="amazon-2" style="isolation: isolate">
    <path id="Path_93" data-name="Path 93" d="M291.872,325.831c-10.653,7.876-26.147,12.073-39.512,12.073a71.64,71.64,0,0,1-48.292-18.4c-.968-.9-.129-2.131,1.1-1.42a95.919,95.919,0,0,0,85.156,5.229c1.808-.71,3.293,1.227,1.549,2.518Z" transform="translate(-177.727 -282.51)" fill="#f90" fill-rule="evenodd"/>
    <path id="Path_94" data-name="Path 94" d="M339.872,319.681c-1.356-1.743-9.039-.839-12.46-.387-1.033.129-1.227-.775-.258-1.42,6.133-4.326,16.14-3.034,17.3-1.614s-.323,11.492-6.069,16.269c-.9.71-1.743.323-1.356-.646C338.323,328.655,341.228,321.489,339.872,319.681Z" transform="translate(-221.273 -281.461)" fill="#f90" fill-rule="evenodd"/>
    <path id="Path_95" data-name="Path 95" d="M269.833,269.169v-4.2a.982.982,0,0,1,1.033-1.033h18.723a1.076,1.076,0,0,1,1.1,1.033v3.551c0,.581-.516,1.356-1.42,2.647l-9.684,13.816a21.033,21.033,0,0,1,10.653,2.26,1.923,1.923,0,0,1,.968,1.614v4.455c0,.646-.646,1.356-1.356.968a21.358,21.358,0,0,0-19.756.065,1.013,1.013,0,0,1-1.356-.968v-4.261a4.825,4.825,0,0,1,.71-2.841L280.679,270.2H270.93a1.076,1.076,0,0,1-1.1-1.033Zm-68.241,26.018H195.91a1.166,1.166,0,0,1-1.033-.968V265.037a1.076,1.076,0,0,1,1.1-1.033h5.294a1.052,1.052,0,0,1,1.033.968v3.809h.129c1.356-3.68,4-5.423,7.489-5.423,3.551,0,5.811,1.743,7.36,5.423a8.091,8.091,0,0,1,7.876-5.423,8,8,0,0,1,6.585,3.228c1.808,2.453,1.42,6,1.42,9.168v18.465a1.076,1.076,0,0,1-1.1,1.033h-5.617a1.109,1.109,0,0,1-1.033-1.033V278.724a38.719,38.719,0,0,0-.129-5.488,3,3,0,0,0-3.357-2.518,3.8,3.8,0,0,0-3.422,2.389c-.581,1.485-.516,3.938-.516,5.617v15.495a1.076,1.076,0,0,1-1.1,1.033h-5.681a1.109,1.109,0,0,1-1.033-1.033V278.724c0-3.228.516-8.07-3.486-8.07-4.067,0-3.938,4.648-3.938,8.07v15.495a1.134,1.134,0,0,1-1.162.968Zm105.235-31.829c8.458,0,13.041,7.231,13.041,16.463,0,8.909-5.036,16.011-13.041,16.011-8.264,0-12.783-7.231-12.783-16.27-.065-9.1,4.519-16.2,12.783-16.2Zm0,6c-4.2,0-4.455,5.746-4.455,9.3s-.065,11.169,4.39,11.169c4.39,0,4.648-6.133,4.648-9.878a28.25,28.25,0,0,0-.839-7.747,3.57,3.57,0,0,0-3.745-2.841Zm23.952,25.825H325.1a1.109,1.109,0,0,1-1.033-1.033V264.908a1.116,1.116,0,0,1,1.1-.968h5.294a1.1,1.1,0,0,1,1.033.839v4.455h.129c1.614-4,3.809-5.875,7.747-5.875a7.518,7.518,0,0,1,6.65,3.422c1.485,2.324,1.485,6.262,1.485,9.1v18.4a1.062,1.062,0,0,1-1.1.9h-5.681a1.175,1.175,0,0,1-1.033-.9V278.4c0-3.228.387-7.876-3.551-7.876a3.738,3.738,0,0,0-3.293,2.324,13.4,13.4,0,0,0-.9,5.552v15.753a1.182,1.182,0,0,1-1.162,1.033Zm-75.86-13.945c0,2.2.065,4.067-1.033,6.069a4.569,4.569,0,0,1-3.938,2.582c-2.2,0-3.486-1.679-3.486-4.132,0-4.842,4.326-5.746,8.458-5.746Zm5.746,13.881a1.167,1.167,0,0,1-1.356.129,14.257,14.257,0,0,1-3.293-3.809c-3.1,3.164-5.359,4.132-9.361,4.132-4.778,0-8.522-2.97-8.522-8.845a9.664,9.664,0,0,1,6.069-9.3c3.1-1.356,7.425-1.614,10.717-2v-.71c0-1.356.129-2.97-.71-4.132a3.823,3.823,0,0,0-3.164-1.485c-2.2,0-4.132,1.1-4.584,3.422-.129.516-.452,1.033-.968,1.033l-5.488-.581a.994.994,0,0,1-.839-1.162c1.291-6.714,7.3-8.716,12.719-8.716,2.776,0,6.392.71,8.587,2.841,2.776,2.582,2.518,6.069,2.518,9.813V284.6c0,2.647,1.1,3.809,2.131,5.294.387.516.452,1.162,0,1.485-1.227.968-3.293,2.776-4.455,3.745Zm-80.314-13.881c0,2.2.065,4.067-1.033,6.069a4.569,4.569,0,0,1-3.938,2.582c-2.2,0-3.486-1.679-3.486-4.132,0-4.842,4.326-5.746,8.458-5.746Zm5.681,13.881a1.167,1.167,0,0,1-1.356.129,14.256,14.256,0,0,1-3.293-3.809c-3.1,3.164-5.359,4.132-9.361,4.132-4.778,0-8.522-2.97-8.522-8.845a9.664,9.664,0,0,1,6.069-9.3c3.1-1.356,7.425-1.614,10.717-2v-.71c0-1.356.129-2.97-.71-4.132a3.823,3.823,0,0,0-3.163-1.485c-2.2,0-4.132,1.1-4.584,3.422-.129.516-.452,1.033-.968,1.033l-5.488-.581a.994.994,0,0,1-.839-1.162c1.291-6.714,7.3-8.716,12.719-8.716,2.776,0,6.392.71,8.587,2.841,2.776,2.582,2.518,6.069,2.518,9.813V284.6c0,2.647,1.1,3.809,2.131,5.294.387.516.452,1.162,0,1.485-1.227.968-3.293,2.776-4.455,3.745Z" transform="translate(-163.5 -263.1)" fill-rule="evenodd"/>
  </g>
</svg>
