<svg xmlns="http://www.w3.org/2000/svg" width="30" height="28.007" viewBox="0 0 30 28.007">
  <g id="coupon-black" transform="translate(0 -17.01)">
    <path id="Path_107" data-name="Path 107" d="M108.144,222.991a1.365,1.365,0,1,0,1.012,1.318A1.213,1.213,0,0,0,108.144,222.991Z" transform="translate(-100.856 -193.912)" fill="#272121"/>
    <path id="Path_108" data-name="Path 108" d="M259.508,341.981a1.365,1.365,0,1,0,1.012,1.319A1.213,1.213,0,0,0,259.508,341.981Z" transform="translate(-243.351 -305.93)" fill="#272121"/>
    <path id="Path_109" data-name="Path 109" d="M21.906,25.37c-8.911-8.2-8.455-7.886-9.164-8.162a2.924,2.924,0,0,0-3.032.571L1.46,25.37A4.537,4.537,0,0,0,0,28.7V42.144a2.869,2.869,0,0,0,2.858,2.873H20.507a2.869,2.869,0,0,0,2.858-2.873V28.7a4.538,4.538,0,0,0-1.459-3.332ZM10.832,22.488a.879.879,0,1,1,.7.949A.878.878,0,0,1,10.832,22.488ZM4.519,30.4a2.938,2.938,0,0,1,2.769-3.076,3.093,3.093,0,0,1,0,6.153A2.939,2.939,0,0,1,4.519,30.4Zm5.039,9.355a.88.88,0,0,1-.81-1.219l4.279-10.2a.879.879,0,0,1,1.621.68l-4.279,10.2a.879.879,0,0,1-.811.539Zm6.6.694a3.094,3.094,0,0,1,0-6.153,3.093,3.093,0,0,1,0,6.153Z" fill="#272121"/>
    <path id="Path_110" data-name="Path 110" d="M296.7,52.741c-2.862-8.331-4.451-12.962-4.474-13.015a4.489,4.489,0,0,0-2.651-2.457c-.068-.023.334.074-6.041-1.438l6.481,5.964a6.3,6.3,0,0,1,2.027,4.625V57.811l3.162-1.354a2.854,2.854,0,0,0,1.5-3.716Z" transform="translate(-266.925 -17.718)" fill="#272121"/>
  </g>
</svg>
