<svg xmlns="http://www.w3.org/2000/svg" width="31.164" height="29.093" viewBox="0 0 31.164 29.093">
  <g id="coupon" transform="translate(0 -17.01)">
    <path id="Path_11" data-name="Path 11" d="M108.184,222.991a1.418,1.418,0,1,0,1.051,1.37A1.26,1.26,0,0,0,108.184,222.991Z" transform="translate(-100.612 -193.444)" fill="#fff"/>
    <path id="Path_12" data-name="Path 12" d="M259.548,341.981a1.418,1.418,0,1,0,1.051,1.37A1.26,1.26,0,0,0,259.548,341.981Z" transform="translate(-242.763 -305.191)" fill="#fff"/>
    <path id="Path_13" data-name="Path 13" d="M22.755,25.694c-9.257-8.518-8.783-8.192-9.519-8.478a3.037,3.037,0,0,0-3.15.593l-8.57,7.885A4.712,4.712,0,0,0,0,29.155V43.118A2.98,2.98,0,0,0,2.969,46.1H21.3a2.98,2.98,0,0,0,2.969-2.984V29.155a4.714,4.714,0,0,0-1.516-3.461ZM11.252,22.7a.913.913,0,1,1,.73.985A.912.912,0,0,1,11.252,22.7ZM4.695,30.917a3.052,3.052,0,0,1,2.877-3.2,3.213,3.213,0,0,1,0,6.392,3.053,3.053,0,0,1-2.877-3.2Zm5.234,9.718a.914.914,0,0,1-.841-1.267l4.445-10.593a.913.913,0,1,1,1.684.707L10.771,40.075a.913.913,0,0,1-.842.56Zm6.856.721a3.214,3.214,0,0,1,0-6.392,3.213,3.213,0,0,1,0,6.392Z" fill="#fff"/>
    <path id="Path_14" data-name="Path 14" d="M297.215,53.4c-2.973-8.654-4.624-13.465-4.647-13.52a4.663,4.663,0,0,0-2.754-2.553c-.071-.024.347.077-6.275-1.494l6.733,6.195a6.542,6.542,0,0,1,2.106,4.8V58.663l3.284-1.406A2.965,2.965,0,0,0,297.215,53.4Z" transform="translate(-266.281 -17.676)" fill="#fff"/>
  </g>
</svg>
