<svg xmlns="http://www.w3.org/2000/svg" width="184" height="60.061" viewBox="0 0 184 60.061">
  <g id="google-2015" style="isolation: isolate">
    <path id="Path_87" data-name="Path 87" d="M22.658,0h1.636A22.327,22.327,0,0,1,39.576,6.452c-1.482,1.513-2.995,2.964-4.446,4.476A16.7,16.7,0,0,0,7.1,20.993a17.186,17.186,0,0,0,3.736,13.275A16.524,16.524,0,0,0,22.874,40.2,16.028,16.028,0,0,0,34.853,36.09c2.47-2.13,3.612-5.372,3.983-8.521-5.125,0-10.25.031-15.374,0v-6.36h21.58c1.111,6.823-.494,14.51-5.681,19.388a21.1,21.1,0,0,1-13.121,5.9,24.1,24.1,0,0,1-13.8-2.717A23.76,23.76,0,0,1,1.418,31.212a22.763,22.763,0,0,1-.154-15.405A23.5,23.5,0,0,1,9.754,4.538,24.237,24.237,0,0,1,22.658,0Z" transform="translate(0.003)" fill="#3780ff"/>
    <path id="Path_88" data-name="Path 88" d="M474.4,5.2h6.607V49.286c-2.192,0-4.415.031-6.607-.031.031-14.664,0-29.36,0-44.055Z" transform="translate(-327.941 -3.595)" fill="#38b137"/>
    <path id="Path_89" data-name="Path 89" d="M166.39,54.087a15.513,15.513,0,0,1,11.855,2.532,14.5,14.5,0,0,1,5.835,9.262A14.928,14.928,0,0,1,168.4,83.786a15.024,15.024,0,0,1-11.238-6.02,15.432,15.432,0,0,1-2.038-14.016,14.651,14.651,0,0,1,11.268-9.663m.926,5.866a8.3,8.3,0,0,0-4.322,2.748,9.792,9.792,0,0,0,.494,12.75,8.221,8.221,0,0,0,7.348,2.285,8.314,8.314,0,0,0,5.742-4.23A9.764,9.764,0,0,0,174.911,61.9a8.33,8.33,0,0,0-7.595-1.945Z" transform="translate(-106.652 -37.2)" fill="#fa3913"/>
    <path id="Path_90" data-name="Path 90" d="M272.412,54.082a15.355,15.355,0,0,1,13.244,3.674c5.68,5.094,6.3,14.633,1.451,20.5a15.27,15.27,0,0,1-23.926-.494,15.581,15.581,0,0,1-1.945-14.325,14.663,14.663,0,0,1,11.176-9.354m.926,5.866a8.442,8.442,0,0,0-4.322,2.717,9.806,9.806,0,0,0,.34,12.627,8.261,8.261,0,0,0,7.533,2.439,8.469,8.469,0,0,0,5.742-4.23A9.816,9.816,0,0,0,280.9,61.862a8.276,8.276,0,0,0-7.564-1.914Z" transform="translate(-179.949 -37.195)" fill="#fcbd06"/>
    <path id="Path_91" data-name="Path 91" d="M373.2,55.87a12.621,12.621,0,0,1,12.1-.926,11.533,11.533,0,0,1,3.149,2.315c.031-.834,0-1.7.031-2.562,2.068.031,4.137,0,6.236.031V81.957c-.031,4.106-1.081,8.459-4.044,11.454-3.242,3.3-8.212,4.322-12.689,3.643a14.356,14.356,0,0,1-10.805-8.613c1.852-.9,3.8-1.605,5.711-2.439a8.49,8.49,0,0,0,6.02,5.187c2.748.494,5.927-.185,7.718-2.47,1.914-2.346,1.914-5.557,1.821-8.428a10.96,10.96,0,0,1-5.032,3.087A13.568,13.568,0,0,1,371.1,80.2a15.2,15.2,0,0,1,2.1-24.327m6.391,3.952a8.122,8.122,0,0,0-4.847,2.809,9.849,9.849,0,0,0,.031,12.38,8.077,8.077,0,0,0,6.946,2.84,7.844,7.844,0,0,0,5.9-3.921,10.42,10.42,0,0,0-1.05-11.67,7.6,7.6,0,0,0-6.977-2.439Z" transform="translate(-252.98 -37.193)" fill="#3780ff"/>
    <path id="Path_92" data-name="Path 92" d="M511.019,57.4a13.933,13.933,0,0,1,14.17-2.809c4.507,1.7,7.378,5.989,8.829,10.4-6.7,2.779-13.368,5.526-20.067,8.3a7.961,7.961,0,0,0,4.26,4.013,8.648,8.648,0,0,0,8.15-1.173,13.146,13.146,0,0,0,2.285-2.439c1.7,1.142,3.4,2.254,5.094,3.4a15.115,15.115,0,0,1-23.864,1.513c-5.125-5.927-4.631-15.868,1.142-21.209m3.3,5.711a8.815,8.815,0,0,0-1.451,5.187q6.715-2.779,13.429-5.588a5.553,5.553,0,0,0-4.353-3.056A7.889,7.889,0,0,0,514.322,63.113Z" transform="translate(-350.019 -37.149)" fill="#fa3913"/>
  </g>
</svg>
