<svg xmlns="http://www.w3.org/2000/svg" width="27.189" height="30" viewBox="0 0 27.189 30">
  <g id="graph" transform="translate(-23.988)">
    <path id="Path_17" data-name="Path 17" d="M180.441,210.75H178.1a2.112,2.112,0,0,1-2.109-2.109V194.109A2.112,2.112,0,0,1,178.1,192h2.344a2.112,2.112,0,0,1,2.109,2.109v14.531A2.112,2.112,0,0,1,180.441,210.75Z" transform="translate(-143.094 -180.75)" fill="#272121"/>
    <path id="Path_18" data-name="Path 18" d="M28.441,286.063H26.1a2.112,2.112,0,0,1-2.109-2.109v-9.844A2.112,2.112,0,0,1,26.1,272h2.344a2.112,2.112,0,0,1,2.109,2.109v9.844A2.112,2.112,0,0,1,28.441,286.063Z" transform="translate(0 -256.063)" fill="#272121"/>
    <path id="Path_19" data-name="Path 19" d="M287.23,30h-2.344a2.112,2.112,0,0,1-2.109-2.109V8.437h-1.288a1.523,1.523,0,0,1-1.157-2.515l.014-.016,5.014-5.6a.938.938,0,0,1,1.4,0l5.014,5.6.014.016a1.523,1.523,0,0,1-1.157,2.515H289.34V27.891A2.112,2.112,0,0,1,287.23,30Z" transform="translate(-240.977)" fill="#272121"/>
  </g>
</svg>
