<svg id="instagram" xmlns="http://www.w3.org/2000/svg" width="44.344" height="44.344" viewBox="0 0 44.344 44.344">
  <path id="Path_100" data-name="Path 100" d="M40.8,23.88H27.585a3.83,3.83,0,0,0-3.826,3.826V40.922a3.831,3.831,0,0,0,3.826,3.826H40.8a3.831,3.831,0,0,0,3.826-3.826V27.706A3.83,3.83,0,0,0,40.8,23.88Zm-6.608,17.3a6.87,6.87,0,1,1,6.87-6.87A6.878,6.878,0,0,1,34.193,41.184Zm7.091-12.319a1.625,1.625,0,1,1,1.625-1.625A1.627,1.627,0,0,1,41.284,28.865Z" transform="translate(-12.021 -12.082)" fill="#fff"/>
  <path id="Path_101" data-name="Path 101" d="M40.816,36.971a3.967,3.967,0,1,0,3.967,3.966A3.972,3.972,0,0,0,40.816,36.971Z" transform="translate(-18.644 -18.706)" fill="#fff"/>
  <path id="Path_102" data-name="Path 102" d="M22.172,0A22.172,22.172,0,1,0,44.344,22.172,22.173,22.173,0,0,0,22.172,0ZM35.509,28.84a6.736,6.736,0,0,1-6.729,6.729H15.564A6.736,6.736,0,0,1,8.835,28.84V15.623a6.736,6.736,0,0,1,6.729-6.729H28.78a6.736,6.736,0,0,1,6.729,6.729Z" fill="#fff"/>
</svg>
