<svg id="internet" xmlns="http://www.w3.org/2000/svg" width="512" height="512" viewBox="0 0 512 512">
  <g id="Group_15" data-name="Group 15">
    <path id="Path_20" data-name="Path 20" d="M256,0C115.041,0,0,115.049,0,256S115.049,512,256,512,512,396.951,512,256,396.951,0,256,0ZM179.638,43.29C162.074,65.621,149.31,93.23,140.478,120H75.621A227.036,227.036,0,0,1,179.638,43.29ZM56.452,149.9H131.99A454.178,454.178,0,0,0,120.236,241H30.51A224.807,224.807,0,0,1,56.452,149.9Zm0,212.1A224.348,224.348,0,0,1,30.51,271h89.726a453.174,453.174,0,0,0,11.754,91Zm19.169,30h64.856c8.83,26.763,21.594,54.376,39.161,76.71A227.036,227.036,0,0,1,75.621,392ZM241,479.454C207.509,468.2,184.418,425.2,172.222,392H241ZM241,362H162.885a416.9,416.9,0,0,1-12.637-91H241Zm0-121H150.248a417.024,417.024,0,0,1,12.637-91H241Zm0-121H172.222c12.2-33.2,35.287-76.2,68.778-87.454Zm214.548,30a224.332,224.332,0,0,1,25.942,91H391.764a453.174,453.174,0,0,0-11.754-91Zm-19.169-30H371.523c-8.83-26.763-21.594-54.376-39.161-76.71A227.036,227.036,0,0,1,436.379,120ZM271,32.546C304.491,43.8,327.582,86.8,339.778,120H271ZM271,150h78.115a416.9,416.9,0,0,1,12.637,91H271Zm0,120.9h90.752c-1.028,32.116-5.348,63.065-12.637,91.1H271Zm0,208.554V391.9h68.778C327.583,425.1,304.491,468.2,271,479.454Zm61.362-10.744c17.564-22.331,30.328-50.041,39.161-76.81h64.856A227.236,227.236,0,0,1,332.362,468.71ZM455.548,362H380.01a454.178,454.178,0,0,0,11.754-91.1H481.49A224.807,224.807,0,0,1,455.548,362Z" fill="#fff"/>
  </g>
</svg>
