<svg id="linkedin" xmlns="http://www.w3.org/2000/svg" width="44.669" height="44.669" viewBox="0 0 44.669 44.669">
  <ellipse id="Ellipse_16" data-name="Ellipse 16" cx="22.334" cy="22.334" rx="22.334" ry="22.334" transform="translate(0 0)" fill="#fff"/>
  <g id="Group_16" data-name="Group 16" transform="translate(10.777 9.543)">
    <path id="Path_103" data-name="Path 103" d="M51.97,38.557v9.208H46.632V39.174c0-2.157-.771-3.63-2.7-3.63A2.92,2.92,0,0,0,41.19,37.5a3.654,3.654,0,0,0-.177,1.3v8.968H35.674s.072-14.55,0-16.056h5.339v2.275c-.011.018-.026.035-.035.053h.035v-.053a5.3,5.3,0,0,1,4.811-2.652c3.512,0,6.146,2.295,6.146,7.226ZM30.089,23.969a2.782,2.782,0,1,0-.07,5.549h.035a2.783,2.783,0,1,0,.035-5.549Zm-2.7,23.8h5.337V31.709H27.385Z" transform="translate(-27.068 -23.969)" fill="#e16428"/>
  </g>
</svg>
