<svg xmlns="http://www.w3.org/2000/svg" width="22.235" height="28.929" viewBox="0 0 22.235 28.929">
  <g id="locked-padlock" transform="translate(-56.313)">
    <path id="Path_10" data-name="Path 10" d="M76.97,11.683h-.564V9.044A8.994,8.994,0,0,0,67.695,0c-.132,0-.4,0-.529,0a8.994,8.994,0,0,0-8.712,9.043v2.638H57.89a1.83,1.83,0,0,0-1.577,2V26.918a1.839,1.839,0,0,0,1.577,2.011H76.97a1.839,1.839,0,0,0,1.577-2.011V13.686A1.83,1.83,0,0,0,76.97,11.683Zm-7.753,8.606v4a.854.854,0,0,1-.841.845H66.484a.854.854,0,0,1-.842-.845v-4a2.421,2.421,0,0,1,1.523-4.119c.132-.005.4-.005.529,0a2.421,2.421,0,0,1,1.523,4.119Zm3.474-8.606H62.169V9.044a5.261,5.261,0,1,1,10.522,0v2.638Z" transform="translate(0 0)" fill="#fff"/>
  </g>
</svg>
