<svg xmlns="http://www.w3.org/2000/svg" width="23.058" height="30" viewBox="0 0 23.058 30">
  <g id="locked-padlock-black" transform="translate(-56.313)">
    <path id="Path_15" data-name="Path 15" d="M77.735,12.115h-.585V9.379A9.327,9.327,0,0,0,68.116,0c-.137,0-.411,0-.548,0a9.327,9.327,0,0,0-9.035,9.378v2.736h-.585a1.9,1.9,0,0,0-1.636,2.078V27.915A1.907,1.907,0,0,0,57.949,30H77.735a1.907,1.907,0,0,0,1.636-2.085V14.193A1.9,1.9,0,0,0,77.735,12.115ZM69.7,21.04v4.146a.885.885,0,0,1-.873.877H66.861a.885.885,0,0,1-.873-.877V21.04a2.511,2.511,0,0,1,1.58-4.272c.137-.006.411-.006.548,0A2.511,2.511,0,0,1,69.7,21.04Zm3.6-8.925H62.386V9.379a5.456,5.456,0,1,1,10.912,0v2.736Z" transform="translate(0 0)" fill="#272121"/>
  </g>
</svg>
