<svg id="logo--white" xmlns="http://www.w3.org/2000/svg" width="190.765" height="31" viewBox="0 0 190.765 31">
  <g id="internet">
    <g id="Group_1" data-name="Group 1">
      <path id="Path_1" data-name="Path 1" d="M15.688,0A15.586,15.586,0,0,0,0,15.413,15.586,15.586,0,0,0,15.688,30.827,15.586,15.586,0,0,0,31.376,15.413,15.586,15.586,0,0,0,15.688,0Zm-4.68,2.606a15.211,15.211,0,0,0-2.4,4.619H4.634A13.9,13.9,0,0,1,11.009,2.606ZM3.459,9.025H8.089a26.893,26.893,0,0,0-.72,5.485H1.87A13.357,13.357,0,0,1,3.459,9.025Zm0,12.77a13.33,13.33,0,0,1-1.59-5.479h5.5a26.833,26.833,0,0,0,.72,5.479ZM4.634,23.6H8.609a15.211,15.211,0,0,0,2.4,4.619A13.9,13.9,0,0,1,4.634,23.6Zm10.135,5.265C12.717,28.189,11.3,25.6,10.554,23.6h4.215Zm0-7.072H9.982a24.689,24.689,0,0,1-.774-5.479h5.561Zm0-7.285H9.207a24.7,24.7,0,0,1,.774-5.479h4.787Zm0-7.285H10.554c.747-2,2.162-4.588,4.215-5.265ZM27.917,9.031a13.329,13.329,0,0,1,1.59,5.479h-5.5a26.833,26.833,0,0,0-.72-5.479ZM26.742,7.225H22.768a15.211,15.211,0,0,0-2.4-4.619A13.9,13.9,0,0,1,26.742,7.225ZM16.607,1.96c2.052.678,3.467,3.267,4.215,5.265H16.607Zm0,7.072h4.787a24.689,24.689,0,0,1,.774,5.479H16.607Zm0,7.279h5.561a24.751,24.751,0,0,1-.774,5.485H16.607Zm0,12.557V23.6h4.215C20.075,25.594,18.66,28.189,16.607,28.867Zm3.76-.647a15.244,15.244,0,0,0,2.4-4.625h3.975A13.911,13.911,0,0,1,20.368,28.22ZM27.917,21.8H23.288a26.893,26.893,0,0,0,.72-5.485h5.5A13.357,13.357,0,0,1,27.917,21.8Z" fill="#fff"/>
    </g>
  </g>
  <text id="DoDomain" transform="translate(38.004 24)" fill="#fff" font-size="30" font-family="Epilogue-Bold, Epilogue" font-weight="700"><tspan x="0" y="0">Do</tspan><tspan y="0" font-family="Epilogue-Regular, Epilogue" font-weight="400">Domain</tspan></text>
</svg>
