<svg xmlns="http://www.w3.org/2000/svg" width="203" height="37.222" viewBox="0 0 203 37.222">
  <path id="philips" d="M20.615,13.752c0,4.635-2.242,7.775-7.919,7.775H10.9V6.764c.638-.036,1.233-.036,1.794-.036,5.375,0,7.919,2.54,7.919,7.024m-5.827,14.2c10.158,0,16.58-5.233,16.58-14.35C31.368,3.587,24.5,0,13.294,0A122.772,122.772,0,0,0,0,.746v35.73H10.9V27.954Zm146.087-14.2c0,4.635-2.239,7.775-7.917,7.775H151.17V6.764c.632-.036,1.229-.036,1.788-.036,5.376,0,7.917,2.54,7.917,7.024m-5.821,14.2c10.15,0,16.576-5.233,16.576-14.35,0-10.017-6.87-13.6-18.074-13.6a122.842,122.842,0,0,0-13.3.746v35.73h10.909V27.954h3.886ZM185.818,9.865c0-1.943,1.944-2.841,5.078-2.841a27.317,27.317,0,0,1,9.711,1.8l-.9-7.776A42.663,42.663,0,0,0,189.7,0c-8.814,0-14.787,3.477-14.787,10.765,0,12.554,17.031,10.015,17.031,15.845,0,2.24-1.646,3.435-5.681,3.435a32.636,32.636,0,0,1-12.4-2.839l1.2,8.224a36.061,36.061,0,0,0,11.351,1.792c9.109,0,16.579-2.991,16.579-11.961,0-11.955-17.182-9.715-17.182-15.4M132.047.746h-10.9v35.73h10.9Zm-44.216,0h-10.9v35.73h10.9ZM106.8,29.3V.746H95.9v35.73h19.719l1.642-7.178H106.8ZM68.862.746h-10.9v14.2H46.6V.746H35.7v35.73H46.6V22.422H57.957V36.476h10.9V.746Z" fill="#1978be"/>
</svg>
