<svg xmlns="http://www.w3.org/2000/svg" width="16.107" height="14.024" viewBox="0 0 16.107 14.024">
  <g id="send-email" transform="translate(-3 -21.4)">
    <path id="XMLID_497_" d="M.285,26.125,4,27.51l1.437,4.62a.437.437,0,0,0,.694.209L8.2,30.652a.617.617,0,0,1,.752-.021l3.731,2.709a.437.437,0,0,0,.685-.264L16.1,19.928a.438.438,0,0,0-.586-.5L.28,25.306A.438.438,0,0,0,.285,26.125Zm4.916.648,7.253-4.467a.126.126,0,0,1,.153.2L6.621,28.07a1.241,1.241,0,0,0-.385.742l-.2,1.511a.187.187,0,0,1-.366.027l-.784-2.756A.73.73,0,0,1,5.2,26.773Z" transform="translate(3 2)" fill="#fff"/>
  </g>
</svg>
