<svg xmlns="http://www.w3.org/2000/svg" width="44.669" height="44.669" viewBox="0 0 44.669 44.669">
  <g id="twitter" transform="translate(-0.001)">
    <circle id="Ellipse_17" data-name="Ellipse 17" cx="22.334" cy="22.334" r="22.334" transform="translate(0.001 0)" fill="#fff"/>
    <g id="Group_17" data-name="Group 17" transform="translate(9.995 13.548)">
      <path id="Path_104" data-name="Path 104" d="M51.124,36.531a10.651,10.651,0,0,1-3.066.84,5.353,5.353,0,0,0,2.348-2.953,10.687,10.687,0,0,1-3.39,1.3,5.343,5.343,0,0,0-9.1,4.87,15.154,15.154,0,0,1-11-5.579,5.344,5.344,0,0,0,1.652,7.128,5.3,5.3,0,0,1-2.418-.668c0,.023,0,.045,0,.068a5.342,5.342,0,0,0,4.283,5.234,5.359,5.359,0,0,1-2.411.092,5.344,5.344,0,0,0,4.987,3.707,10.777,10.777,0,0,1-7.9,2.21A15.182,15.182,0,0,0,48.475,39.985c0-.231-.005-.462-.016-.69a10.826,10.826,0,0,0,2.664-2.763Z" transform="translate(-25.103 -34.028)" fill="#e16428"/>
    </g>
  </g>
</svg>
