<svg xmlns="http://www.w3.org/2000/svg" width="444" height="296.042" viewBox="0 0 444 296.042">
  <g id="undraw_Short_bio_re_fmx0" transform="translate(0 0.096)">
    <path id="Path_21" data-name="Path 21" d="M85.4,392.987h8.113l3.858-31.294H85.4Z" transform="translate(-24.793 -105.039)" fill="#ffb8b8"/>
    <path id="Path_22" data-name="Path 22" d="M0,0H25.5V9.852H9.852A9.851,9.851,0,0,1,0,0Z" transform="translate(84.366 295.48) rotate(179.995)" fill="#2f2e41"/>
    <path id="Path_23" data-name="Path 23" d="M177.4,392.987h8.113l3.858-31.294H177.4Z" transform="translate(-51.504 -105.039)" fill="#ffb8b8"/>
    <path id="Path_24" data-name="Path 24" d="M0,0H25.5V9.852H9.852A9.851,9.851,0,0,1,0,0Z" transform="translate(149.655 295.48) rotate(179.995)" fill="#2f2e41"/>
    <path id="Path_25" data-name="Path 25" d="M365.973,572.351a3.189,3.189,0,0,1-3.133-2.579l-5.21-65.463c-5.609-55.437,3.991-74.967,4.089-75.158l.105-.206.231.013,45.03,2.592,9.559,31.268,25.268,33.949a30.751,30.751,0,0,1,6.047,18.655l-.64,49.5a3.212,3.212,0,0,1-2.972,3.145l-13.191.918a3.183,3.183,0,0,1-3.4-2.844L424.492,512.4a.277.277,0,0,0-.076-.148l-37.474-34.927a1.065,1.065,0,0,0-1.771.35l-3.779,90.976a3.156,3.156,0,0,1-.783,2.4,3.2,3.2,0,0,1-2.336,1.08l-12.24.223Z" transform="translate(-307.122 -295.928)" fill="#2f2e41"/>
    <circle id="Ellipse_2" data-name="Ellipse 2" cx="22.739" cy="22.739" r="22.739" transform="translate(48.741 36.494) rotate(-28.663)" fill="#2f2e41"/>
    <path id="Path_26" data-name="Path 26" d="M526.148,368.224a6.654,6.654,0,0,0-9.55,3.593l-15.183.851-1.733,9.353,21.424-1.5a6.691,6.691,0,0,0,5.042-12.294Z" transform="translate(-348.875 -278.049)" fill="#ffb8b8"/>
    <path id="Path_27" data-name="Path 27" d="M353.836,466.889a6.654,6.654,0,0,0-4.221-9.29l-1.86-15.093-9.447-1.107,2.926,21.277a6.691,6.691,0,0,0,12.6,4.212Z" transform="translate(-302.022 -299.544)" fill="#ffb8b8"/>
    <circle id="Ellipse_3" data-name="Ellipse 3" cx="17.43" cy="17.43" r="17.43" transform="translate(61.175 35.07)" fill="#ffb8b8"/>
    <path id="Path_28" data-name="Path 28" d="M390.858,413.564c-9.268,0-17.035-.75-24.738-3.5-3.171-1.133-3.51-2.539-3.956-4.3-.7-2.759-1.084-35.388,2.53-46.217A16.253,16.253,0,0,1,378.158,348.6c3.441-.405,13.732-1.86,19.561-2.691a11.013,11.013,0,0,1,8.123,1.99c1.545,1.16,2.347,2.406,2.384,3.7l1.584,55.169a6.149,6.149,0,0,1-5.741,6.334C400.508,413.344,395.878,413.564,390.858,413.564Z" transform="translate(-308.815 -271.784)" fill="#e16428"/>
    <path id="Path_29" data-name="Path 29" d="M336.514,429.485a3.193,3.193,0,0,1-3.19-3.317l.554-25.3a18.018,18.018,0,0,1,2.709-8.825l21.478-34.454a7.472,7.472,0,0,1,6.339-3.5,7.39,7.39,0,0,1,6.312,3.549h0a7.453,7.453,0,0,1,.176,7.473l-20.834,37.865,1.434,23.24a3.193,3.193,0,0,1-3.186,3.251l-11.785.023Z" transform="translate(-300.575 -274.193)" fill="#e16428"/>
    <path id="Path_30" data-name="Path 30" d="M485.893,380.03a3.162,3.162,0,0,1-2.261,1.064l-25.286,1.341a18.014,18.014,0,0,1-9-2.042l-35.964-18.841a7.438,7.438,0,0,1-.9-12.62l.207.288-.207-.288a7.452,7.452,0,0,1,7.439-.734l39.317,17.944,23.085-3.17a3.194,3.194,0,0,1,3.463,2.936l.9,11.75q.007.088.009.176a3.163,3.163,0,0,1-.81,2.2Z" transform="translate(-322.663 -272.29)" fill="#e16428"/>
    <path id="Path_31" data-name="Path 31" d="M90.721,63.136,86.2,50.924l20.333-5.885L121.066,49.5V63.136Z" transform="translate(-25.026 -13.104)" fill="#2f2e41"/>
    <path id="Path_32" data-name="Path 32" d="M374.247,263.972a24.772,24.772,0,0,0-43.806-13.563c-4.275,5.2-6.25,11.879-7.7,18.45s-2.492,13.315-5.3,19.429-7.756,11.669-14.29,13.275-14.469-2.009-15.979-8.565a33.244,33.244,0,0,0,11.282,23.242c5.661,4.909,14.9,3.173,20.477-1.836s8.331-12.361,10.717-19.464,4.739-14.51,9.8-20.035,19.407-11.4,25.908-7.672C370.461,270.156,372.29,268.3,374.247,263.972Z" transform="translate(-287.178 -241.47)" fill="#2f2e41"/>
    <path id="Path_33" data-name="Path 33" d="M790.5,417.06H543.532a11.723,11.723,0,0,1-11.709-11.71V279.74a11.723,11.723,0,0,1,11.71-11.709H790.5a11.723,11.723,0,0,1,11.71,11.71V405.351A11.723,11.723,0,0,1,790.5,417.06Z" transform="translate(-358.206 -249.209)" fill="#e6e6e6"/>
    <path id="Path_34" data-name="Path 34" d="M791.141,412.028H549.854A6.039,6.039,0,0,1,543.822,406V286.062a6.039,6.039,0,0,1,6.032-6.032H791.141a6.039,6.039,0,0,1,6.032,6.032V406A6.039,6.039,0,0,1,791.141,412.028Z" transform="translate(-361.69 -252.693)" fill="#fff"/>
    <path id="Path_35" data-name="Path 35" d="M775.772,436.885H587a5.677,5.677,0,0,1,0-11.355H775.772a5.677,5.677,0,0,1,0,11.355Z" transform="translate(-372.578 -294.937)" fill="#e6e6e6"/>
    <path id="Path_36" data-name="Path 36" d="M775.772,402.885H587a5.677,5.677,0,0,1,0-11.355H775.772a5.677,5.677,0,0,1,0,11.355Z" transform="translate(-372.578 -285.065)" fill="#e6e6e6"/>
    <path id="Path_37" data-name="Path 37" d="M628.015,350.953H586.854a6.039,6.039,0,0,1-6.032-6.032V314.934a6.039,6.039,0,0,1,6.032-6.032h41.161a6.039,6.039,0,0,1,6.032,6.032v29.987a6.039,6.039,0,0,1-6.032,6.032Z" transform="translate(-372.432 -261.076)" fill="#e16428"/>
    <path id="Path_38" data-name="Path 38" d="M814.1,358.885H718.3a5.677,5.677,0,1,1,0-11.355H814.1a5.677,5.677,0,1,1,0,11.355Z" transform="translate(-410.697 -272.291)" fill="#ccc"/>
    <path id="Path_39" data-name="Path 39" d="M774.359,324.885H718.3a5.677,5.677,0,1,1,0-11.355h56.064a5.677,5.677,0,1,1,0,11.355Z" transform="translate(-410.697 -262.419)" fill="#ccc"/>
    <path id="Path_40" data-name="Path 40" d="M479.72,657.949H339.206a.71.71,0,1,1,0-1.419H479.72a.71.71,0,1,1,0,1.419Z" transform="translate(-302.077 -362.003)" fill="#ccc"/>
  </g>
</svg>
