<svg xmlns="http://www.w3.org/2000/svg" width="328.496" height="297.365" viewBox="0 0 328.496 297.365">
  <g id="undraw_Analytics_re_dkf8" transform="translate(0 0)">
    <path id="Path_41" data-name="Path 41" d="M573.17,217.522H463.31a7.121,7.121,0,0,1-7.113-7.113V124.123a5.217,5.217,0,0,1,5.211-5.211H574.982a5.307,5.307,0,0,1,5.3,5.3v86.2A7.121,7.121,0,0,1,573.17,217.522Z" transform="translate(-353.942 -112.96)" fill="#f2f2f2"/>
    <path id="Path_42" data-name="Path 42" d="M479.595,225.6h96.065a6.9,6.9,0,0,0,6.9-6.9V152.5a6.9,6.9,0,0,0-6.9-6.9H479.595a6.9,6.9,0,0,0-6.9,6.9V218.7A6.9,6.9,0,0,0,479.595,225.6Z" transform="translate(-363.329 -128.146)" fill="#fff"/>
    <path id="Path_43" data-name="Path 43" d="M580.052,115.863H455.965v-3.621a7.145,7.145,0,0,1,7.139-7.135H572.913a7.145,7.145,0,0,1,7.139,7.135Z" transform="translate(-353.81 -105.106)" fill="#ccc"/>
    <circle id="Ellipse_4" data-name="Ellipse 4" cx="1.847" cy="1.847" r="1.847" transform="translate(113.282 3.542)" fill="#fff"/>
    <circle id="Ellipse_5" data-name="Ellipse 5" cx="1.847" cy="1.847" r="1.847" transform="translate(120.291 3.542)" fill="#fff"/>
    <circle id="Ellipse_6" data-name="Ellipse 6" cx="1.847" cy="1.847" r="1.847" transform="translate(127.301 3.542)" fill="#fff"/>
    <path id="Path_44" data-name="Path 44" d="M497.532,208.715h-4.758a.974.974,0,0,1-.973-.973v-4.757a.974.974,0,0,1,.973-.973h4.758a.974.974,0,0,1,.973.973v4.758A.974.974,0,0,1,497.532,208.715Z" transform="translate(-374.198 -160.236)" fill="#e16428"/>
    <path id="Path_45" data-name="Path 45" d="M497.532,237.309h-4.758a.974.974,0,0,1-.973-.973v-4.758a.974.974,0,0,1,.973-.973h4.758a.974.974,0,0,1,.973.973v4.758A.974.974,0,0,1,497.532,237.309Z" transform="translate(-374.198 -176.503)" fill="#3f3d56"/>
    <path id="Path_46" data-name="Path 46" d="M497.532,265.9h-4.758a.974.974,0,0,1-.973-.973v-4.758a.974.974,0,0,1,.973-.973h4.758a.974.974,0,0,1,.973.973v4.758A.974.974,0,0,1,497.532,265.9Z" transform="translate(-374.198 -192.769)" fill="#ccc"/>
    <path id="Path_47" data-name="Path 47" d="M545.8,209.476H522.873a.973.973,0,1,1,0-1.946H545.8a.973.973,0,1,1,0,1.946Z" transform="translate(-391.32 -163.375)" fill="#ccc"/>
    <path id="Path_48" data-name="Path 48" d="M545.8,238.07H522.873a.973.973,0,0,1,0-1.946H545.8a.973.973,0,1,1,0,1.946Z" transform="translate(-391.32 -179.642)" fill="#ccc"/>
    <path id="Path_49" data-name="Path 49" d="M545.8,266.663H522.873a.973.973,0,0,1,0-1.946H545.8a.973.973,0,1,1,0,1.946Z" transform="translate(-391.32 -195.909)" fill="#ccc"/>
    <path id="Path_50" data-name="Path 50" d="M681.472,210.546c.024-.409.038-.821.038-1.236a20.4,20.4,0,0,0-20.4-20.4v21.635Z" transform="translate(-470.519 -152.783)" fill="#e16428"/>
    <path id="Path_51" data-name="Path 51" d="M630.608,214.848V193.213a20.4,20.4,0,1,0,20.36,21.635Z" transform="translate(-441.559 -155.23)" fill="#3f3d56"/>
    <path id="Path_52" data-name="Path 52" d="M547.065,793.756H219.431a.431.431,0,0,1,0-.862H547.065a.431.431,0,0,1,0,.862Z" transform="translate(-219 -496.39)" fill="#ccc"/>
    <path id="Path_53" data-name="Path 53" d="M712.755,515.595a4.618,4.618,0,0,1,.384.617l21.6,2.429,3.142-4.245,7.026,3.9-6.185,10.312-26.467-6.946a4.6,4.6,0,1,1,.5-6.071Z" transform="translate(-495.184 -337.583)" fill="#ffb8b8"/>
    <path id="Path_54" data-name="Path 54" d="M439.4,493.635a4.335,4.335,0,0,1-6.262-2.231l-15.4.321L422,484.952l13.972.733a4.359,4.359,0,0,1,3.425,7.95Z" transform="translate(-332.061 -321.201)" fill="#ffb8b8"/>
    <path id="Path_55" data-name="Path 55" d="M373.761,477.251a1.944,1.944,0,0,1-1.909,1.385l-28.188-.716-25.524-7.557a5.526,5.526,0,1,1,3.291-10.551l23.059,7.561,27.677,2.671a1.95,1.95,0,0,1,1.753,1.964l-.08,4.721A1.947,1.947,0,0,1,373.761,477.251Z" transform="translate(-273.192 -306.756)" fill="#3f3d56"/>
    <path id="Path_56" data-name="Path 56" d="M138.46,649.7h5.285l2.515-20.386h-7.8Z" transform="translate(-78.77 -358.017)" fill="#ffb8b8"/>
    <path id="Path_57" data-name="Path 57" d="M354.333,777.7h10.409a6.633,6.633,0,0,1,6.633,6.633v.215H354.333Z" transform="translate(-295.991 -487.748)" fill="#2f2e41"/>
    <path id="Path_58" data-name="Path 58" d="M102.46,649.7h5.285l2.515-20.386h-7.8Z" transform="translate(-58.289 -358.017)" fill="#ffb8b8"/>
    <path id="Path_59" data-name="Path 59" d="M318.333,777.7h10.409a6.633,6.633,0,0,1,6.633,6.633v.215H318.333Z" transform="translate(-275.511 -487.748)" fill="#2f2e41"/>
    <path id="Path_60" data-name="Path 60" d="M313.233,580.928l1.262,74.879a1.724,1.724,0,0,0,1.88,1.688l6.185-.562a1.724,1.724,0,0,0,1.563-1.584l3.621-46.707a.431.431,0,0,1,.861.017l1.81,47.777a1.724,1.724,0,0,0,1.723,1.659h6.633a1.724,1.724,0,0,0,1.721-1.619l4.643-75.979-27.59-6.9Z" transform="translate(-272.609 -371.633)" fill="#2f2e41"/>
    <circle id="Ellipse_7" data-name="Ellipse 7" cx="10.588" cy="10.588" r="10.588" transform="translate(50.047 117.808)" fill="#ffb8b8"/>
    <path id="Path_61" data-name="Path 61" d="M342.336,504.92h-.031l-24.758-.381a1.94,1.94,0,0,1-1.9-1.747l-.28-2.8a.216.216,0,0,0-.429,0l-.29,2.9a1.937,1.937,0,0,1-1.782,1.741l-1.75.135a1.94,1.94,0,0,1-2.025-2.426l1.507-5.744a78.261,78.261,0,0,0,.732-36.5l-.749-3.405a12.3,12.3,0,0,1,5.807-13.285l4.863-2.851,2.206-3.309a4.779,4.779,0,0,1,3.87-2.122c3.078-.067,8.357.5,9.349,5a12.287,12.287,0,0,1,8.312,11.83l-.714,51.06a1.94,1.94,0,0,1-1.939,1.913Z" transform="translate(-270.217 -292.849)" fill="#3f3d56"/>
    <path id="Path_62" data-name="Path 62" d="M343.312,393.238c-.043,1.5-1.083,2.363-2.358,3.147a13.644,13.644,0,0,1-4.228,1.452,1.293,1.293,0,0,1-1.9-1.131l-1.34-5.1a32.258,32.258,0,0,1-1.032-4.974,11.423,11.423,0,0,1,2.7-9.06c2.259-2.341,6.178-3.172,8.886-1.369,3.213-4.1,17.9,4.963,14.278,7.817-.645.508-1.63-.135-2.448-.2a2.612,2.612,0,0,0-2.255.717c-.679.83-.383,2.065-.663,3.1a2.895,2.895,0,0,1-3.657,1.875,9.951,9.951,0,0,1-1.9-1.219,2.44,2.44,0,0,0-2.127-.463c-.931.347-1.262,1.487-1.346,2.478A22.947,22.947,0,0,1,343.312,393.238Z" transform="translate(-283.505 -258.739)" fill="#2f2e41"/>
    <path id="Path_63" data-name="Path 63" d="M141.056,377.819l1.724,21.124,9.053,21.986-13.364-21.555Z" transform="translate(-78.775 -214.942)" opacity="0.2"/>
    <path id="Path_64" data-name="Path 64" d="M492.538,563.121l-94.484-56.054a7.121,7.121,0,0,1-2.488-9.747l44.026-74.209a5.217,5.217,0,0,1,7.141-1.823l97.678,57.949a5.307,5.307,0,0,1,1.854,7.264l-43.979,74.131A7.121,7.121,0,0,1,492.538,563.121Z" transform="translate(-318.884 -284.568)" fill="#f2f2f2"/>
    <path id="Path_65" data-name="Path 65" d="M420.368,523.139l82.619,49.015a6.9,6.9,0,0,0,9.452-2.413l33.774-56.929a6.9,6.9,0,0,0-2.413-9.452l-82.62-49.015a6.9,6.9,0,0,0-9.452,2.413l-33.774,56.929A6.9,6.9,0,0,0,420.368,523.139Z" transform="translate(-331.637 -303.239)" fill="#fff"/>
    <path id="Path_66" data-name="Path 66" d="M606,480.142,499.284,416.829l1.848-3.115a7.145,7.145,0,0,1,9.78-2.493l94.44,56.028a7.145,7.145,0,0,1,2.5,9.779Z" transform="translate(-378.454 -278.688)" fill="#ccc"/>
    <circle id="Ellipse_8" data-name="Ellipse 8" cx="1.847" cy="1.847" r="1.847" transform="translate(132.88 138.299)" fill="#fff"/>
    <circle id="Ellipse_9" data-name="Ellipse 9" cx="1.847" cy="1.847" r="1.847" transform="translate(138.908 141.875)" fill="#fff"/>
    <circle id="Ellipse_10" data-name="Ellipse 10" cx="1.847" cy="1.847" r="1.847" transform="translate(144.936 145.451)" fill="#fff"/>
    <rect id="Rectangle_14" data-name="Rectangle 14" width="0.235" height="1.412" transform="matrix(0.51, -0.86, 0.86, 0.51, 203.684, 212.463)" fill="#e6e6e6"/>
    <path id="Path_67" data-name="Path 67" d="M585.4,534.751l-2.454-1.456.12-.2,2.454,1.456Zm-4.908-2.912-2.454-1.456.12-.2,2.454,1.456Zm-4.908-2.912-2.454-1.456.12-.2,2.454,1.456Zm-4.908-2.912-2.454-1.456.12-.2,2.454,1.456Zm-4.908-2.912-2.454-1.456.12-.2,2.454,1.456Zm-4.908-2.912-2.454-1.456.12-.2,2.454,1.456Zm-4.908-2.912-2.454-1.456.12-.2,2.454,1.456Zm-4.908-2.912-2.454-1.456.12-.2,2.454,1.456Zm-4.908-2.912L543.682,510l.12-.2,2.454,1.456Zm-4.908-2.912-2.454-1.456.12-.2,2.454,1.456Zm-4.908-2.912-2.454-1.456.12-.2,2.454,1.456Zm-4.908-2.912-2.454-1.456.12-.2,2.454,1.456Zm-4.908-2.912-2.454-1.456.12-.2,2.454,1.456ZM521.6,496.9l-2.454-1.456.12-.2,2.454,1.456Zm-4.908-2.912-2.454-1.456.12-.2,2.454,1.456Zm-4.908-2.912-2.454-1.456.12-.2,2.454,1.456Z" transform="translate(-384.168 -323.742)" fill="#e6e6e6"/>
    <rect id="Rectangle_15" data-name="Rectangle 15" width="0.235" height="1.412" transform="matrix(0.51, -0.86, 0.86, 0.51, 121.491, 163.701)" fill="#e6e6e6"/>
    <rect id="Rectangle_16" data-name="Rectangle 16" width="0.235" height="1.412" transform="matrix(0.51, -0.86, 0.86, 0.51, 152.633, 207.63)" fill="#e6e6e6"/>
    <path id="Path_68" data-name="Path 68" d="M519.595,554.757l-2.418-1.434.12-.2,2.417,1.434Zm-4.835-2.868-2.417-1.434.12-.2,2.417,1.434Zm-4.835-2.868-2.418-1.434.12-.2,2.417,1.434Zm-4.835-2.868-2.417-1.434.12-.2,2.417,1.434Zm-4.835-2.868-2.417-1.434.12-.2,2.417,1.434Zm-4.835-2.868L493,538.981l.12-.2,2.417,1.434Zm-4.835-2.869-2.417-1.434.12-.2,2.417,1.434Zm-4.835-2.868-2.417-1.434.12-.2,2.417,1.434Z" transform="translate(-369.38 -348.56)" fill="#e6e6e6"/>
    <rect id="Rectangle_17" data-name="Rectangle 17" width="0.235" height="1.412" transform="matrix(0.51, -0.86, 0.86, 0.51, 110.321, 182.528)" fill="#e6e6e6"/>
    <rect id="Rectangle_18" data-name="Rectangle 18" width="0.235" height="1.412" transform="matrix(0.51, -0.86, 0.86, 0.51, 123.662, 202.486)" fill="#e6e6e6"/>
    <path id="Path_69" data-name="Path 69" d="M483.672,561.381l-2.487-1.476.12-.2,2.487,1.476Zm-4.974-2.951-2.487-1.475.12-.2,2.487,1.476Zm-4.974-2.951L471.236,554l.12-.2,2.487,1.476Z" transform="translate(-362.498 -360.369)" fill="#e6e6e6"/>
    <rect id="Rectangle_19" data-name="Rectangle 19" width="0.235" height="1.412" transform="matrix(0.51, -0.86, 0.86, 0.51, 105.037, 191.436)" fill="#e6e6e6"/>
    <rect id="Rectangle_20" data-name="Rectangle 20" width="0.235" height="1.412" transform="matrix(0.51, -0.86, 0.86, 0.51, 114.644, 217.687)" fill="#e6e6e6"/>
    <path id="Path_70" data-name="Path 70" d="M462.753,596.643l-2.487-1.476.12-.2,2.487,1.475Zm-4.974-2.951-2.487-1.476.12-.2,2.487,1.476ZM452.8,590.74l-2.487-1.475.12-.2,2.487,1.476Z" transform="translate(-350.597 -380.43)" fill="#e6e6e6"/>
    <rect id="Rectangle_21" data-name="Rectangle 21" width="0.235" height="1.412" transform="matrix(0.51, -0.86, 0.86, 0.51, 96.018, 206.637)" fill="#e6e6e6"/>
    <path id="Path_71" data-name="Path 71" d="M457.4,587.487l70.014,41.537a7.443,7.443,0,0,0,10.188-2.6l20.457-34.482-.141-.078-46.414,11.847-3.677-14.4a1.778,1.778,0,0,0-1.029-1.2,1.894,1.894,0,0,0-1.215-.068l-24.323,6.208-2.689-10.525a1.785,1.785,0,0,0-2.171-1.288C476.238,582.484,460.411,586.677,457.4,587.487Z" transform="translate(-354.628 -376.631)" fill="#e16428"/>
    <path id="Path_72" data-name="Path 72" d="M456.354,587.341l-.058-.228,19.464-4.969a2,2,0,0,1,2.434,1.444l2.634,10.318,24.188-6.175a2,2,0,0,1,2.433,1.444l3.622,14.189,46.656-11.91.058.228L510.9,603.65l-3.68-14.417a1.765,1.765,0,0,0-2.147-1.274l-24.416,6.233-2.692-10.546a1.768,1.768,0,0,0-2.147-1.274Z" transform="translate(-353.998 -376.459)" fill="#3f3d56"/>
    <circle id="Ellipse_11" data-name="Ellipse 11" cx="1.648" cy="1.648" r="1.648" transform="translate(123.289 201.459)" fill="#3f3d56"/>
    <circle id="Ellipse_12" data-name="Ellipse 12" cx="1.648" cy="1.648" r="1.648" transform="translate(152.259 206.604)" fill="#3f3d56"/>
    <circle id="Ellipse_13" data-name="Ellipse 13" cx="1.648" cy="1.648" r="1.648" transform="translate(202.732 210.571)" fill="#3f3d56"/>
    <path id="Path_73" data-name="Path 73" d="M385.587,574.3a4.335,4.335,0,0,1-.137-6.646l-5.768-14.285,7.847,1.585,4.274,13.322a4.359,4.359,0,0,1-6.216,6.024Z" transform="translate(-310.413 -360.122)" fill="#ffb8b8"/>
    <path id="Path_74" data-name="Path 74" d="M375.587,507.979a1.944,1.944,0,0,1-1.973-1.293l-9.337-26.607-2-26.544a5.526,5.526,0,1,1,11.031-.669l1.117,24.242,7.327,26.823a1.95,1.95,0,0,1-1.214,2.336l-4.442,1.6A1.949,1.949,0,0,1,375.587,507.979Z" transform="translate(-300.508 -299.994)" fill="#3f3d56"/>
    <path id="Path_75" data-name="Path 75" d="M781.7,507.788a1.98,1.98,0,0,1-.481-.3l-8.683-7.314a1.972,1.972,0,0,1-.127-2.9l7.879-7.912a1.962,1.962,0,0,1,2.557-.2l5.958,4.327a1.973,1.973,0,0,1,.624,2.439l-5.155,10.9a1.974,1.974,0,0,1-2.573.966Z" transform="translate(-533.509 -323.378)" fill="#e16428"/>
    <path id="Path_76" data-name="Path 76" d="M636.994,641.334l-5.186,1.411-7.91-19.331,7.654-2.082Z" transform="translate(-354.937 -353.477)" fill="#ffb8b8"/>
    <path id="Path_77" data-name="Path 77" d="M6.418,0H16.89V6.526H0V6.418A6.418,6.418,0,0,1,6.418,0Z" transform="translate(266.467 290.506) rotate(-15.221)" fill="#2f2e41"/>
    <path id="Path_78" data-name="Path 78" d="M540.975,649.553H535.6l-2.557-20.729h7.932Z" transform="translate(-303.25 -357.739)" fill="#ffb8b8"/>
    <path id="Path_79" data-name="Path 79" d="M521.35,673.346h10.473v6.526h-16.89v-.108A6.418,6.418,0,0,1,521.35,673.346Z" transform="translate(-292.947 -383.068)" fill="#2f2e41"/>
    <circle id="Ellipse_14" data-name="Ellipse 14" cx="10.767" cy="10.767" r="10.767" transform="translate(235.054 133.415)" fill="#ffb8b8"/>
    <path id="Path_80" data-name="Path 80" d="M756.027,638.4h-7.344a1.978,1.978,0,0,1-1.971-1.851c-2.188-34.789-.908-59.744,4.028-78.534a2.04,2.04,0,0,1,.08-.242l.393-.983a1.964,1.964,0,0,1,1.832-1.24h15.1a1.969,1.969,0,0,1,1.5.689l2.051,2.393c.04.047.077.094.114.144,9.25,12.9,17.539,38.117,27.14,72.014a1.966,1.966,0,0,1-1.3,2.418l-7.893,2.526a1.983,1.983,0,0,1-2.378-1.022L766.9,592.227a1.534,1.534,0,0,0-2.9.458l-6.018,44.005A1.98,1.98,0,0,1,756.027,638.4Z" transform="translate(-518.631 -361.362)" fill="#2f2e41"/>
    <path id="Path_81" data-name="Path 81" d="M776.652,510.485h-.062l-18.345-.579a1.966,1.966,0,0,1-1.9-1.733c-2.326-18.824,4.052-23.867,6.9-25.161a1.516,1.516,0,0,0,.882-1.2l.247-1.973a1.965,1.965,0,0,1,.39-.958,22.543,22.543,0,0,1,13.81-8.232,1.969,1.969,0,0,1,2.3,1.688l.37,2.833a1.561,1.561,0,0,0,.313.741c9.319,12.183-1.063,30.171-3.239,33.653h0A1.976,1.976,0,0,1,776.652,510.485Z" transform="translate(-524.414 -313.045)" fill="#e16428"/>
    <path id="Path_82" data-name="Path 82" d="M814.344,407.453a44.648,44.648,0,0,1-1.764-7.437,5.037,5.037,0,0,1,1.329-4.066c2-1.9,5.408-.994,7.5.8,3.028,2.6,4.538,6.586,5.109,10.534s.32,7.962.457,11.949.708,8.085,2.74,11.518,5.8,6.067,9.782,5.775a6.884,6.884,0,0,0,4.309-1.826,5,5,0,0,0,1.5-4.339,9.738,9.738,0,0,1-2.03,11.437,12.117,12.117,0,0,1-11.685,2.449,16.149,16.149,0,0,1-9.228-7.967,24.458,24.458,0,0,1-2.574-12.1c.08-3.2.624-6.429.083-9.585s-2.516-6.361-5.631-7.1Z" transform="translate(-556.677 -269.967)" fill="#2f2e41"/>
    <path id="Path_83" data-name="Path 83" d="M772.978,418.467a3.984,3.984,0,0,1-4.39,2.568,5.148,5.148,0,0,1-3.885-3.572,7.352,7.352,0,0,1,.575-5.39,8.394,8.394,0,0,1,4.8-4.278,6.892,6.892,0,0,1,6.267,1,2.3,2.3,0,0,1,1.611-1.684,4.4,4.4,0,0,1,2.417.036,9.959,9.959,0,0,1,5.543,4.032,16.2,16.2,0,0,1,2.512,6.476c.618,3.471.39,7.264-1.559,10.2s-5.938,4.672-9.174,3.272a4.275,4.275,0,0,1,.829-2.964,9.04,9.04,0,0,0,1.421-2.794,2.256,2.256,0,0,0-1.19-2.625c-.849-.287-1.755.178-2.65.234a2.9,2.9,0,0,1-2.785-4.184Z" transform="translate(-529.299 -276.832)" fill="#2f2e41"/>
    <path id="Path_84" data-name="Path 84" d="M710.793,528.735a4.617,4.617,0,0,1,.493.534l21.674-1.687,2.285-4.761,7.636,2.51-4.13,11.293-27.3-1.832a4.6,4.6,0,1,1-.656-6.056Z" transform="translate(-494.401 -342.745)" fill="#ffb8b8"/>
    <path id="Path_85" data-name="Path 85" d="M780.556,521.216a1.976,1.976,0,0,1-.518-.232l-9.6-6.063a1.973,1.973,0,0,1-.521-2.856l6.727-8.911a1.962,1.962,0,0,1,2.505-.55l6.492,3.474a1.973,1.973,0,0,1,.951,2.331l-3.621,11.5a1.974,1.974,0,0,1-2.417,1.307Z" transform="translate(-532.193 -331.109)" fill="#e16428"/>
  </g>
</svg>
