<svg xmlns="http://www.w3.org/2000/svg" width="203" height="48.251" viewBox="0 0 203 48.251">
  <g id="walmart" style="isolation: isolate">
    <path id="Path_96" data-name="Path 96" d="M333.3,321.743a2.068,2.068,0,0,0,2.187-1.347l1.116-12.624c0-1.248-1.462-2.272-3.3-2.272s-3.3,1.024-3.3,2.272l1.116,12.624a2.06,2.06,0,0,0,2.181,1.347h0m-6.823,3.943a2.058,2.058,0,0,0-.073-2.565l-10.376-7.279c-1.079-.625-2.7.127-3.614,1.719s-.758,3.366.318,3.991l11.489,5.35a2.078,2.078,0,0,0,2.26-1.223l0,.007m13.652-.007a2.079,2.079,0,0,0,2.259,1.223l11.489-5.35c1.083-.625,1.236-2.4.324-3.991s-2.543-2.344-3.619-1.719l-10.377,7.279a2.068,2.068,0,0,0-.073,2.565l0-.007M333.3,337.512a2.064,2.064,0,0,1,2.187,1.343l1.116,12.622c0,1.252-1.462,2.274-3.3,2.274s-3.3-1.022-3.3-2.274l1.116-12.622a2.056,2.056,0,0,1,2.181-1.343h0m6.829-3.944a2.068,2.068,0,0,1,2.259-1.219l11.489,5.346c1.083.625,1.236,2.4.324,3.995s-2.543,2.341-3.619,1.717l-10.377-7.272a2.075,2.075,0,0,1-.073-2.569h0m-13.651,0a2.065,2.065,0,0,1-.073,2.569l-10.376,7.272c-1.079.624-2.7-.132-3.614-1.717s-.758-3.369.318-3.995l11.489-5.346a2.067,2.067,0,0,1,2.26,1.219h0" transform="translate(-154.988 -305.5)" fill="#fdbb30"/>
    <path id="Path_97" data-name="Path 97" d="M-271.635,370.941a4.012,4.012,0,0,1-.141,1.138,3.986,3.986,0,0,1-3.837,2.69,2.6,2.6,0,0,1-2.824-2.783c0-2.89,3.181-3.689,6.8-3.668v2.623Zm5.68-5.037c0-4.766-2.036-8.96-8.918-8.96a16.287,16.287,0,0,0-7.866,1.876l1.121,3.832a11.517,11.517,0,0,1,5.736-1.614c3.49-.01,4.062,1.977,4.062,3.248v.3c-7.608-.011-12.418,2.623-12.418,7.99a6.336,6.336,0,0,0,6.708,6.351,7.62,7.62,0,0,0,6.119-2.719h.13s.868,3.636,5.659,2.245a30.9,30.9,0,0,1-.332-5.067V365.9M-384.5,350.454s4.972,20.372,5.766,23.679c.926,3.859,2.6,5.28,7.405,4.321l3.1-12.63c.787-3.139,1.314-5.377,1.821-8.566h.088a83.8,83.8,0,0,0,1.509,8.577s1.263,5.734,1.911,8.745,2.454,4.908,7.166,3.875l7.4-28H-354.3l-2.527,12.106c-.679,3.522-1.3,6.278-1.77,9.5h-.084c-.432-3.193-.982-5.837-1.671-9.27l-2.628-12.337h-6.222l-2.813,12.026c-.8,3.655-1.543,6.606-2.016,9.72h-.086c-.486-2.933-1.132-6.643-1.832-10.179,0,0-1.67-8.6-2.257-11.567H-384.5m47.463,20.487a3.956,3.956,0,0,1-.142,1.138,3.985,3.985,0,0,1-3.837,2.69,2.6,2.6,0,0,1-2.823-2.783c0-2.89,3.18-3.689,6.8-3.668v2.623Zm5.68-5.037c0-4.766-2.036-8.96-8.916-8.96a16.291,16.291,0,0,0-7.868,1.876l1.119,3.832a11.516,11.516,0,0,1,5.737-1.614c3.493-.01,4.064,1.977,4.064,3.248v.3c-7.612-.011-12.419,2.623-12.419,7.99a6.334,6.334,0,0,0,6.7,6.351,7.625,7.625,0,0,0,6.123-2.719h.128s.87,3.636,5.66,2.245a30.855,30.855,0,0,1-.332-5.067V365.9m9.479,6.606V350.454h-5.687v28h5.687V372.51m74.4-22.056v20.655c0,2.849.537,4.843,1.682,6.063a6.3,6.3,0,0,0,4.63,1.757,13.55,13.55,0,0,0,4.116-.61l-.073-4.443a8.689,8.689,0,0,1-2.16.257c-1.938,0-2.586-1.241-2.586-3.8v-7.9h4.952v-5.358h-4.952v-6.62h-5.609m-14.679,6.966v21.035h5.866v-10.77a7.979,7.979,0,0,1,.127-1.553,4.427,4.427,0,0,1,4.637-3.7,10.926,10.926,0,0,1,1.692.149v-5.507a5.714,5.714,0,0,0-1.292-.129,6.191,6.191,0,0,0-5.725,4.443h-.159v-3.968h-5.148m-55.735,0v21.035h5.716V366.119a4.964,4.964,0,0,1,.268-1.722,3.872,3.872,0,0,1,3.474-2.7c2.307,0,3.385,1.95,3.385,4.764v11.988h5.711V365.967a5.816,5.816,0,0,1,.239-1.7,3.6,3.6,0,0,1,3.429-2.563c2.338,0,3.46,1.916,3.46,5.228v11.524h5.715v-12.39c0-6.533-3.318-9.119-7.063-9.119a7.626,7.626,0,0,0-4.151,1.141,8.9,8.9,0,0,0-2.664,2.622h-.084a6,6,0,0,0-5.8-3.761,6.62,6.62,0,0,0-6.126,3.333h-.085v-2.858H-317.9" transform="translate(384.5 -340.328)" fill="#1a75cf"/>
    <path id="Path_98" data-name="Path 98" d="M508,466.75h.086c.114,0,.188-.047.188-.118s-.069-.123-.175-.123c-.036,0-.074.007-.1.007v.233Zm-.013.567h-.3v-.99a2.39,2.39,0,0,1,.436-.038.669.669,0,0,1,.4.081.256.256,0,0,1,.107.217c0,.1-.093.188-.231.225v.013a.291.291,0,0,1,.206.255,1,1,0,0,0,.069.238h-.344a.657.657,0,0,1-.068-.212c-.019-.1-.067-.15-.168-.15h-.1v.362Zm.126-1.312a.788.788,0,1,0,.007,0h-.007Zm.02-.269a1.148,1.148,0,1,1-.008,0h.007" transform="translate(-306.221 -429.647)" fill="#fdbb30"/>
  </g>
</svg>
